<?xml version="1.0" encoding="utf-8"?>
<svg viewBox="46.857 42.151 398.577 323.243" xmlns="http://www.w3.org/2000/svg">
  <g>
    <rect x="47.357" y="88.412" width="397.577" height="94.163" style="fill: rgb(223, 237, 242);"/>
    <path d="M 47.357 88.412 C 36.935 30.048 433.343 23.5 444.934 88.412 L 444.934 176.518 L 386.257 176.518 L 343.691 205.703 L 295.886 176.518 L 212.273 176.518 L 160.566 206.254 L 120.35 176.518 L 47.357 176.518 L 47.357 88.412 Z" style="fill: rgb(91, 201, 240);"/>
    <path d="M 445.434 87.912 L 445.434 177.018 L 46.857 177.018 L 46.857 87.912 Z M 47.857 176.018 L 444.434 176.018 L 444.434 88.912 L 47.857 88.912 Z" style="fill: none;"/>
    <path d="M 445.434 87.912 L 445.434 177.018 L 46.857 177.018 L 46.857 87.912 Z M 47.857 176.018 L 444.434 176.018 L 444.434 88.912 L 47.857 88.912 Z" style="fill: none;"/>
    <line style="" x1="99.67" y1="245.901" x2="207.048" y2="247.553"/>
    <path d="M 138.768 267.905 L 171.646 219.18 L 207.056 270.974 L 207.046 272.833 L 172.369 237.506 L 138.759 269.763 L 138.768 267.905 Z" style=""/>
    <path d="M 282.49 270.108 L 315.368 221.383 L 350.778 273.177 L 350.768 275.036 L 316.091 239.709 L 282.481 271.966 L 282.49 270.108 Z" style=""/>
    <line style="" x1="158.04" y1="329.601" x2="344.163" y2="365.394"/>
  </g>
</svg>