<?xml version="1.0" encoding="utf-8"?>
<svg viewBox="46.857 19.045 398.577 356.762" xmlns="http://www.w3.org/2000/svg">
  <g>
    <g>
      <rect x="47.357" y="88.412" width="397.577" height="94.163" style="fill: rgb(223, 237, 242);"/>
      <path d="M 47.357 88.412 C 36.935 30.048 433.343 23.5 444.934 88.412 L 444.934 176.518 L 386.257 176.518 L 343.691 205.703 L 295.886 176.518 L 212.273 176.518 L 160.566 206.254 L 120.35 176.518 L 47.357 176.518 L 47.357 88.412 Z" style="fill: rgb(91, 201, 240);"/>
      <path d="M 445.434 87.912 L 445.434 177.018 L 46.857 177.018 L 46.857 87.912 Z M 47.857 176.018 L 444.434 176.018 L 444.434 88.912 L 47.857 88.912 Z" style="fill: none;"/>
      <path d="M 445.434 87.912 L 445.434 177.018 L 46.857 177.018 L 46.857 87.912 Z M 47.857 176.018 L 444.434 176.018 L 444.434 88.912 L 47.857 88.912 Z" style="fill: none;"/>
      <line style="" x1="99.67" y1="245.901" x2="207.048" y2="247.553"/>
      <path d="M 138.768 267.905 L 171.646 219.18 L 207.056 270.974 L 207.046 272.833 L 172.369 237.506 L 138.759 269.763 L 138.768 267.905 Z" style=""/>
      <path d="M 282.49 270.108 L 315.368 221.383 L 350.778 273.177 L 350.768 275.036 L 316.091 239.709 L 282.481 271.966 L 282.49 270.108 Z" style=""/>
      <line style="" x1="158.04" y1="329.601" x2="344.163" y2="365.394"/>
      <path d="M 210.904 370.879 L 243.782 322.154 L 279.192 373.948 L 279.182 375.807 L 244.505 340.48 L 210.895 372.737 L 210.904 370.879 Z" style="fill: rgb(117, 91, 91);"/>
    </g>
    <g>
      <circle style="fill: rgb(255, 255, 255);" cx="144.824" cy="141.031" r="5.507"/>
      <circle style="fill: rgb(255, 255, 255);" cx="134.912" cy="132.22" r="5.507" transform="matrix(1.949932, 0, 0, 1.499965, -126.78054, -71.611946)"/>
      <path d="M 150.069 70.546 C 150.069 84.732 144.277 97.67 134.985 106.963 C 125.692 116.255 112.754 122.047 98.568 122.047 C 84.382 122.047 71.444 116.255 62.151 106.963 C 52.859 97.67 47.067 84.732 47.067 70.546 C 47.067 56.36 52.859 43.422 62.151 34.129 C 71.444 24.837 84.382 19.045 98.568 19.045 C 112.754 19.045 125.692 24.837 134.985 34.129 C 144.277 43.422 150.069 56.36 150.069 70.546 Z M 134.278 34.836 C 125.111 25.67 112.549 20.045 98.568 20.045 C 84.587 20.045 72.025 25.67 62.858 34.836 C 53.692 44.003 48.067 56.565 48.067 70.546 C 48.067 84.527 53.692 97.089 62.858 106.256 C 72.025 115.422 84.587 121.047 98.568 121.047 C 112.549 121.047 125.111 115.422 134.278 106.256 C 143.444 97.089 149.069 84.527 149.069 70.546 C 149.069 56.565 143.444 44.003 134.278 34.836 Z" style="fill: none;"/>
      <path d="M 150.069 70.546 C 150.069 84.732 144.277 97.67 134.985 106.963 C 125.692 116.255 112.754 122.047 98.568 122.047 C 84.382 122.047 71.444 116.255 62.151 106.963 C 52.859 97.67 47.067 84.732 47.067 70.546 C 47.067 56.36 52.859 43.422 62.151 34.129 C 71.444 24.837 84.382 19.045 98.568 19.045 C 112.754 19.045 125.692 24.837 134.985 34.129 C 144.277 43.422 150.069 56.36 150.069 70.546 Z M 134.278 34.836 C 125.111 25.67 112.549 20.045 98.568 20.045 C 84.587 20.045 72.025 25.67 62.858 34.836 C 53.692 44.003 48.067 56.565 48.067 70.546 C 48.067 84.527 53.692 97.089 62.858 106.256 C 72.025 115.422 84.587 121.047 98.568 121.047 C 112.549 121.047 125.111 115.422 134.278 106.256 C 143.444 97.089 149.069 84.527 149.069 70.546 C 149.069 56.565 143.444 44.003 134.278 34.836 Z" style="fill: none;"/>
      <circle style="fill: rgb(251, 251, 251);" cx="107.104" cy="76.878" r="46.29"/>
      <text style="fill: rgb(51, 51, 51); font-family: Chilanka; font-size: 10px; white-space: pre;" x="72.136" y="79.356">Whatcha doin?</text>
    </g>
  </g>
</svg>